<?xml version="1.0" encoding="UTF-8"?>
<!DOCTYPE svg PUBLIC "-//W3C//DTD SVG 1.1//EN" "http://www.w3.org/Graphics/SVG/1.1/DTD/svg11.dtd">
<!-- Creator: CorelDRAW 2020 (64-Bit) -->
<svg xmlns="http://www.w3.org/2000/svg" xml:space="preserve" width="42.3332mm" height="15.2398mm" version="1.1" style="shape-rendering:geometricPrecision; text-rendering:geometricPrecision; image-rendering:optimizeQuality; fill-rule:evenodd; clip-rule:evenodd"
viewBox="0 0 4233.32 1523.98"
 xmlns:xlink="http://www.w3.org/1999/xlink"
 xmlns:xodm="http://www.corel.com/coreldraw/odm/2003">
 <defs>
  <style type="text/css">
   <![CDATA[
    .str0 {stroke:#FEFEFE;stroke-width:35.28;stroke-miterlimit:22.9256}
    .fil1 {fill:none}
    .fil0 {fill:#FEFEFE;fill-rule:nonzero}
   ]]>
  </style>
 </defs>
 <g id="Слой_x0020_1">
  <metadata id="CorelCorpID_0Corel-Layer"/>
  <path class="fil0" d="M195.04 1014.75l0 -544.29c0,-30.24 -4.2,-54.6 -12.6,-73.08 -8.39,-18.48 -27.71,-27.72 -57.95,-27.72l-20.16 0 0 -20.16 90.71 0c23.52,0 41.83,3.03 54.94,9.07 13.1,6.05 22.34,17.81 27.72,35.28 5.37,17.47 8.06,43.01 8.06,76.61l0 544.29 -90.72 0z"/>
  <path id="1" class="fil0" d="M629.47 1024.83c-47.04,0 -87.02,-11.09 -119.95,-33.26 -32.93,-22.18 -58.12,-52.08 -75.6,-89.71 -17.47,-37.63 -26.2,-78.96 -26.2,-123.98 0,-45.69 8.73,-87.19 26.2,-124.48 17.48,-37.29 42.67,-67.03 75.6,-89.2 32.93,-22.18 72.91,-33.27 119.95,-33.27 47.03,0 87.02,11.09 119.94,33.27 32.93,22.17 58.13,51.91 75.6,89.2 17.47,37.29 26.21,78.79 26.21,124.48 0,45.02 -8.74,86.35 -26.21,123.98 -17.47,37.63 -42.67,67.53 -75.6,89.71 -32.92,22.17 -72.91,33.26 -119.94,33.26zm0 -40.32c25.53,0 47.71,-9.24 66.52,-27.72 18.82,-18.48 33.43,-43.34 43.85,-74.59 10.41,-31.24 15.62,-66.02 15.62,-104.32 0,-38.97 -5.21,-73.91 -15.62,-104.83 -10.42,-30.91 -25.03,-55.6 -43.85,-74.08 -18.81,-18.48 -40.99,-27.72 -66.52,-27.72 -24.87,0 -46.87,9.24 -66.02,27.72 -19.16,18.48 -33.94,43.17 -44.35,74.08 -10.42,30.92 -15.63,65.86 -15.63,104.83 0,38.3 5.21,73.08 15.63,104.32 10.41,31.25 25.19,56.11 44.35,74.59 19.15,18.48 41.15,27.72 66.02,27.72z"/>
  <path id="2" class="fil0" d="M1109.25 1024.83c-35.62,0 -64.68,-10.42 -87.19,-31.25 -22.51,-20.83 -33.77,-54.09 -33.77,-99.78l0 -312.47 -70.55 0 0 -40.32 70.55 0 0 -90.71 50.4 -60.48 40.32 0 0 151.19 120.95 0 0 40.32 -120.95 0 0 312.47c0,30.23 5.88,52.91 17.64,68.03 11.76,15.12 29.4,22.68 52.92,22.68 17.47,0 31.91,-2.01 43.34,-6.05 11.42,-4.03 22.17,-8.73 32.25,-14.11l10.08 20.16c-10.75,8.07 -25.53,16.8 -44.35,26.21 -18.81,9.41 -46.03,14.11 -81.64,14.11z"/>
  <path id="3" class="fil0" d="M1482.19 1024.83c-28.22,0 -55.44,-5.04 -81.64,-15.12 -26.21,-10.08 -47.71,-28.22 -64.51,-54.43 -16.8,-26.21 -25.2,-63.5 -25.2,-111.88l0 -181.43c0,-30.24 -4.2,-54.6 -12.6,-73.08 -8.4,-18.48 -27.72,-27.72 -57.96,-27.72l-10.08 0 0 -20.16 80.64 0c23.52,0 41.83,3.03 54.93,9.08 13.11,6.04 22.35,17.8 27.72,35.27 5.38,17.47 8.07,43.01 8.07,76.61l0 181.43c0,33.6 5.37,60.31 16.12,80.13 10.75,19.82 24.7,34.1 41.83,42.84 17.14,8.73 34.78,13.1 52.92,13.1 13.44,0 26.21,-2.52 38.3,-7.56 12.1,-5.04 23.52,-11.59 34.27,-19.65 10.75,-8.07 20.16,-16.8 28.23,-26.21l0 -385.04 90.71 0 0 473.74 -50.4 0 -35.27 -40.32 -5.04 0c-12.77,12.77 -30.24,24.36 -52.42,34.78 -22.17,10.41 -48.38,15.62 -78.62,15.62z"/>
  <path id="4" class="fil0" d="M2007.33 1024.83c-40.32,0 -73.24,-3.53 -98.78,-10.58 -25.53,-7.06 -44.68,-16.97 -57.45,-29.74 -12.77,-12.77 -20.16,-27.21 -22.18,-43.34 -2.01,-16.13 -3.02,-36.96 -3.02,-62.49l20.16 0c5.37,32.92 19.49,58.79 42.33,77.61 22.85,18.81 55.78,28.22 98.78,28.22 38.3,0 66.36,-6.72 84.17,-20.16 17.8,-13.44 26.71,-30.24 26.71,-50.39 0,-20.16 -7.56,-37.13 -22.68,-50.91 -15.12,-13.77 -37.8,-27.04 -68.04,-39.81l-60.48 -25.2c-38.3,-15.45 -68.03,-33.77 -89.2,-54.93 -21.17,-21.17 -31.75,-48.22 -31.75,-81.14 0,-42.34 15.79,-74.76 47.37,-97.27 31.59,-22.51 71.23,-33.77 118.94,-33.77 38.3,0 69.89,3.53 94.75,10.59 24.86,7.05 43.68,16.96 56.44,29.73 12.77,12.77 20.16,27.22 22.18,43.34 2.01,16.13 3.02,36.96 3.02,62.5l-20.16 0c-5.37,-32.93 -19.32,-58.8 -41.83,-77.62 -22.51,-18.81 -53.92,-28.22 -94.24,-28.22 -32.93,0 -57.96,6.72 -75.09,20.16 -17.14,13.44 -25.7,30.24 -25.7,50.4 0,17.47 7.05,33.43 21.16,47.88 14.11,14.44 33.94,27.04 59.47,37.79l60.48 25.2c43,17.47 75.59,36.63 97.77,57.46 22.17,20.83 33.26,48.71 33.26,83.66 0,42.33 -16.8,74.75 -50.4,97.26 -33.59,22.51 -75.59,33.77 -125.99,33.77z"/>
  <line class="fil1 str0" x1="2356.03" y1="24.66" x2="2356.03" y2= "1525.52" />
  <path class="fil0" d="M2613.39 677.43c-12.2,-0.16 -23.05,-2.93 -32.56,-8.32 -9.51,-5.39 -17,-12.88 -22.47,-22.46 -5.46,-9.59 -8.2,-20.57 -8.2,-32.93 -0.16,-12.52 2.58,-23.49 8.2,-32.92 5.63,-9.43 13.16,-16.88 22.59,-22.35 9.43,-5.46 20.24,-8.2 32.44,-8.2 12.36,0 23.3,2.74 32.81,8.2 9.51,5.47 16.99,12.96 22.46,22.47 5.47,9.51 8.2,20.44 8.2,32.8 0.16,12.36 -2.49,23.34 -7.96,32.93 -5.47,9.58 -13.04,17.07 -22.7,22.46 -9.67,5.39 -20.6,8.16 -32.81,8.32zm0 -14.98c9.04,0 17.04,-2.02 24.01,-6.06 6.98,-4.04 12.48,-9.74 16.52,-17.11 4.04,-7.37 6.14,-15.89 6.3,-25.56 -0.16,-9.82 -2.26,-18.38 -6.3,-25.67 -4.04,-7.29 -9.54,-12.96 -16.52,-17 -6.97,-4.04 -14.97,-6.06 -24.01,-6.06 -8.71,0 -16.56,2.02 -23.53,6.06 -6.97,4.04 -12.52,9.71 -16.64,17 -4.12,7.29 -6.26,15.85 -6.42,25.67 0.16,9.67 2.3,18.19 6.42,25.56 4.12,7.37 9.63,13.11 16.52,17.23 6.9,4.12 14.78,6.1 23.65,5.94z"/>
  <polygon id="1" class="fil0" points="2732.25,676.24 2732.25,561.66 2736.53,566.18 2684.95,566.18 2684.95,551.44 2796.43,551.44 2796.43,566.18 2744.85,566.18 2749.13,561.66 2749.13,676.24 "/>
  <polygon id="2" class="fil0" points="2820.92,676.24 2820.92,551.44 2838.03,551.44 2894.61,647.24 2887.48,647.24 2945,551.44 2960.69,551.44 2960.69,676.24 2945.24,676.24 2945.24,570.7 2948.33,572.12 2894.61,661.03 2887,661.03 2832.8,571.17 2836.37,570.46 2836.37,676.24 "/>
  <path id="3" class="fil0" d="M3060.05 677.43c-12.2,-0.16 -23.05,-2.93 -32.56,-8.32 -9.51,-5.39 -17,-12.88 -22.47,-22.46 -5.46,-9.59 -8.2,-20.57 -8.2,-32.93 -0.16,-12.52 2.58,-23.49 8.2,-32.92 5.63,-9.43 13.16,-16.88 22.59,-22.35 9.43,-5.46 20.24,-8.2 32.44,-8.2 12.36,0 23.3,2.74 32.81,8.2 9.51,5.47 16.99,12.96 22.46,22.47 5.47,9.51 8.2,20.44 8.2,32.8 0.16,12.36 -2.49,23.34 -7.96,32.93 -5.47,9.58 -13.04,17.07 -22.7,22.46 -9.67,5.39 -20.6,8.16 -32.81,8.32zm0 -14.98c9.04,0 17.04,-2.02 24.01,-6.06 6.98,-4.04 12.48,-9.74 16.52,-17.11 4.04,-7.37 6.14,-15.89 6.3,-25.56 -0.16,-9.82 -2.26,-18.38 -6.3,-25.67 -4.04,-7.29 -9.54,-12.96 -16.52,-17 -6.97,-4.04 -14.97,-6.06 -24.01,-6.06 -8.71,0 -16.56,2.02 -23.53,6.06 -6.97,4.04 -12.52,9.71 -16.64,17 -4.12,7.29 -6.26,15.85 -6.42,25.67 0.16,9.67 2.3,18.19 6.42,25.56 4.12,7.37 9.63,13.11 16.52,17.23 6.9,4.12 14.78,6.1 23.65,5.94z"/>
  <path id="4" class="fil0" d="M3213.37 677.43c-12.99,0 -24.4,-2.74 -34.23,-8.2 -9.82,-5.47 -17.51,-13 -23.05,-22.58 -5.55,-9.59 -8.32,-20.57 -8.32,-32.93 0,-12.36 2.65,-23.29 7.96,-32.8 5.31,-9.51 12.6,-17 21.87,-22.47 9.27,-5.46 19.69,-8.2 31.26,-8.2 11.72,0 22.14,2.66 31.26,7.97 9.11,5.31 16.28,12.75 21.51,22.34 5.23,9.59 7.84,20.64 7.84,33.16 0,0.79 -0.04,1.63 -0.12,2.5 -0.08,0.87 -0.11,1.78 -0.11,2.73l-108.64 0 0 -12.6 99.6 0 -6.65 5c0,-9.04 -1.94,-17.08 -5.83,-24.13 -3.88,-7.05 -9.15,-12.56 -15.81,-16.52 -6.65,-3.97 -14.34,-5.95 -23.05,-5.95 -8.56,0 -16.25,1.98 -23.06,5.95 -6.82,3.96 -12.12,9.51 -15.93,16.64 -3.8,7.13 -5.7,15.29 -5.7,24.48l0 2.62c0,9.5 2.1,17.86 6.3,25.07 4.2,7.21 10.06,12.84 17.59,16.88 7.52,4.04 16.12,6.06 25.79,6.06 7.61,0 14.7,-1.34 21.27,-4.04 6.58,-2.69 12.25,-6.81 17,-12.36l9.51 10.94c-5.55,6.65 -12.48,11.72 -20.8,15.21 -8.32,3.49 -17.47,5.23 -27.46,5.23z"/>
  <polygon id="5" class="fil0" points="3306.79,676.24 3306.79,551.44 3323.9,551.44 3380.48,647.24 3373.35,647.24 3430.87,551.44 3446.56,551.44 3446.56,676.24 3431.11,676.24 3431.11,570.7 3434.2,572.12 3380.48,661.03 3372.87,661.03 3318.67,571.17 3322.24,570.46 3322.24,676.24 "/>
  <path id="6" class="fil0" d="M3556.86 676.24l0 -124.8 55.15 0c14.1,0 25.23,2.7 33.4,8.08 8.16,5.39 12.24,13.32 12.24,23.78 0,10.14 -3.88,17.94 -11.65,23.41 -7.77,5.47 -17.99,8.2 -30.66,8.2l3.32 -4.99c14.9,0 25.83,2.77 32.81,8.32 6.97,5.55 10.46,13.55 10.46,24.01 0,10.77 -3.93,19.13 -11.77,25.08 -7.84,5.94 -20.01,8.91 -36.49,8.91l-56.81 0zm16.4 -13.31l39.7 0c10.62,0 18.66,-1.71 24.13,-5.11 5.46,-3.41 8.2,-8.92 8.2,-16.52 0,-7.61 -2.46,-13.16 -7.37,-16.64 -4.91,-3.49 -12.68,-5.23 -23.3,-5.23l-41.36 0 0 43.5zm0 -56.1l37.56 0c9.67,0 17.07,-1.82 22.22,-5.47 5.16,-3.64 7.73,-8.95 7.73,-15.93 0,-6.97 -2.57,-12.2 -7.73,-15.68 -5.15,-3.49 -12.55,-5.23 -22.22,-5.23l-37.56 0 0 42.31z"/>
  <path id="7" class="fil0" d="M3753.68 677.43c-12.36,0 -23.41,-2.74 -33.16,-8.2 -9.74,-5.47 -17.39,-13 -22.93,-22.58 -5.55,-9.59 -8.32,-20.57 -8.32,-32.93 0,-12.52 2.77,-23.53 8.32,-33.04 5.54,-9.51 13.19,-16.96 22.93,-22.34 9.75,-5.39 20.8,-8.09 33.16,-8.09 10.62,0 20.21,2.06 28.77,6.18 8.56,4.12 15.29,10.3 20.2,18.55l-12.6 8.55c-4.27,-6.34 -9.58,-11.01 -15.92,-14.02 -6.34,-3.01 -13.23,-4.52 -20.68,-4.52 -8.88,0 -16.88,2.02 -24.01,6.06 -7.13,4.04 -12.76,9.71 -16.88,17 -4.12,7.29 -6.18,15.85 -6.18,25.67 0,9.83 2.06,18.39 6.18,25.67 4.12,7.29 9.75,12.96 16.88,17 7.13,4.04 15.13,6.06 24.01,6.06 7.45,0 14.34,-1.5 20.68,-4.51 6.34,-3.01 11.65,-7.61 15.92,-13.79l12.6 8.56c-4.91,8.08 -11.64,14.22 -20.2,18.42 -8.56,4.2 -18.15,6.3 -28.77,6.3z"/>
  <path id="8" class="fil0" d="M3886.56 677.43c-12.99,0 -24.4,-2.74 -34.23,-8.2 -9.82,-5.47 -17.51,-13 -23.05,-22.58 -5.55,-9.59 -8.32,-20.57 -8.32,-32.93 0,-12.36 2.65,-23.29 7.96,-32.8 5.31,-9.51 12.6,-17 21.87,-22.47 9.27,-5.46 19.69,-8.2 31.26,-8.2 11.72,0 22.14,2.66 31.26,7.97 9.11,5.31 16.28,12.75 21.51,22.34 5.23,9.59 7.84,20.64 7.84,33.16 0,0.79 -0.04,1.63 -0.12,2.5 -0.08,0.87 -0.11,1.78 -0.11,2.73l-108.64 0 0 -12.6 99.6 0 -6.65 5c0,-9.04 -1.94,-17.08 -5.83,-24.13 -3.88,-7.05 -9.15,-12.56 -15.81,-16.52 -6.65,-3.97 -14.34,-5.95 -23.05,-5.95 -8.56,0 -16.25,1.98 -23.06,5.95 -6.82,3.96 -12.12,9.51 -15.93,16.64 -3.8,7.13 -5.7,15.29 -5.7,24.48l0 2.62c0,9.5 2.1,17.86 6.3,25.07 4.2,7.21 10.06,12.84 17.59,16.88 7.52,4.04 16.12,6.06 25.79,6.06 7.61,0 14.7,-1.34 21.27,-4.04 6.58,-2.69 12.25,-6.81 17,-12.36l9.51 10.94c-5.55,6.65 -12.48,11.72 -20.8,15.21 -8.32,3.49 -17.47,5.23 -27.46,5.23z"/>
  <path id="9" class="fil0" d="M3969.28 710.95l10.46 -43.98 1.9 10.22c-3.64,0 -6.69,-1.19 -9.15,-3.56 -2.46,-2.38 -3.68,-5.47 -3.68,-9.28 0,-3.8 1.22,-6.89 3.68,-9.27 2.46,-2.37 5.43,-3.56 8.91,-3.56 3.65,0 6.62,1.27 8.92,3.8 2.3,2.54 3.45,5.55 3.45,9.03 0,1.27 -0.08,2.54 -0.24,3.81 -0.16,1.27 -0.48,2.69 -0.95,4.28 -0.48,1.58 -1.11,3.48 -1.9,5.7l-9.99 32.81 -11.41 0z"/>
  <path id="10" class="fil0" d="M2653.57 1004.04l-51.35 -61.8 14.03 -8.32 57.28 70.12 -19.96 0zm-91.52 0l0 -124.8 16.88 0 0 124.8 -16.88 0zm11.65 -55.62l0 -14.5 40.17 0 0 14.5 -40.17 0zm43.97 -5l-15.69 -2.37 49.69 -61.81 18.3 0 -52.3 64.18z"/>
  <path id="11" class="fil0" d="M2764.58 1005.23c-10.78,0 -20.52,-2.5 -29.24,-7.49 -8.72,-4.99 -15.65,-12.2 -20.8,-21.63 -5.15,-9.43 -7.73,-20.96 -7.73,-34.59 0,-13.63 2.54,-25.16 7.61,-34.58 5.07,-9.43 11.97,-16.6 20.68,-21.52 8.72,-4.91 18.54,-7.37 29.48,-7.37 11.88,0 22.54,2.66 31.97,7.97 9.43,5.31 16.84,12.75 22.23,22.34 5.38,9.59 8.08,20.64 8.08,33.16 0,12.68 -2.7,23.77 -8.08,33.28 -5.39,9.51 -12.8,16.96 -22.23,22.35 -9.43,5.38 -20.09,8.08 -31.97,8.08zm-64.42 44.93l0 -170.92 16.16 0 0 37.56 -1.66 24.96 2.38 25.2 0 83.2 -16.88 0zm63.23 -59.91c8.87,0 16.8,-2.02 23.77,-6.06 6.97,-4.04 12.52,-9.74 16.64,-17.11 4.12,-7.37 6.18,-15.89 6.18,-25.56 0,-9.66 -2.06,-18.14 -6.18,-25.43 -4.12,-7.29 -9.67,-13 -16.64,-17.12 -6.97,-4.12 -14.9,-6.18 -23.77,-6.18 -8.87,0 -16.84,2.06 -23.89,6.18 -7.05,4.12 -12.6,9.83 -16.64,17.12 -4.04,7.29 -6.06,15.77 -6.06,25.43 0,9.67 2.02,18.19 6.06,25.56 4.04,7.37 9.59,13.07 16.64,17.11 7.05,4.04 15.02,6.06 23.89,6.06z"/>
  <path id="12" class="fil0" d="M2914.57 1005.23c-12.2,-0.16 -23.05,-2.93 -32.56,-8.32 -9.51,-5.39 -17,-12.88 -22.47,-22.46 -5.46,-9.59 -8.2,-20.57 -8.2,-32.93 -0.16,-12.52 2.58,-23.49 8.2,-32.92 5.63,-9.43 13.16,-16.88 22.59,-22.35 9.43,-5.46 20.24,-8.2 32.44,-8.2 12.36,0 23.3,2.74 32.81,8.2 9.51,5.47 16.99,12.96 22.46,22.47 5.47,9.51 8.2,20.44 8.2,32.8 0.16,12.36 -2.49,23.34 -7.96,32.93 -5.47,9.58 -13.04,17.07 -22.7,22.46 -9.67,5.39 -20.6,8.16 -32.81,8.32zm0 -14.98c9.04,0 17.04,-2.02 24.01,-6.06 6.98,-4.04 12.48,-9.74 16.52,-17.11 4.04,-7.37 6.14,-15.89 6.3,-25.56 -0.16,-9.82 -2.26,-18.38 -6.3,-25.67 -4.04,-7.29 -9.54,-12.96 -16.52,-17 -6.97,-4.04 -14.97,-6.06 -24.01,-6.06 -8.71,0 -16.56,2.02 -23.53,6.06 -6.97,4.04 -12.52,9.71 -16.64,17 -4.12,7.29 -6.26,15.85 -6.42,25.67 0.16,9.67 2.3,18.19 6.42,25.56 4.12,7.37 9.63,13.11 16.52,17.23 6.9,4.12 14.78,6.1 23.65,5.94z"/>
  <polygon id="13" class="fil0" points="3014.41,1004.04 3014.41,879.24 3031.52,879.24 3088.1,975.04 3080.97,975.04 3138.49,879.24 3154.18,879.24 3154.18,1004.04 3138.73,1004.04 3138.73,898.5 3141.82,899.92 3088.1,988.83 3080.49,988.83 3026.29,898.97 3029.86,898.26 3029.86,1004.04 "/>
  <path id="14" class="fil0" d="M3255.68 1005.23c-12.99,0 -24.4,-2.74 -34.23,-8.2 -9.82,-5.47 -17.51,-13 -23.05,-22.58 -5.55,-9.59 -8.32,-20.57 -8.32,-32.93 0,-12.36 2.65,-23.29 7.96,-32.8 5.31,-9.51 12.6,-17 21.87,-22.47 9.27,-5.46 19.69,-8.2 31.26,-8.2 11.72,0 22.14,2.66 31.26,7.97 9.11,5.31 16.28,12.75 21.51,22.34 5.23,9.59 7.84,20.64 7.84,33.16 0,0.79 -0.04,1.63 -0.12,2.5 -0.08,0.87 -0.11,1.78 -0.11,2.73l-108.64 0 0 -12.6 99.6 0 -6.65 5c0,-9.04 -1.94,-17.08 -5.83,-24.13 -3.88,-7.05 -9.15,-12.56 -15.81,-16.52 -6.65,-3.97 -14.34,-5.95 -23.05,-5.95 -8.56,0 -16.25,1.98 -23.06,5.95 -6.82,3.96 -12.12,9.51 -15.93,16.64 -3.8,7.13 -5.7,15.29 -5.7,24.48l0 2.62c0,9.5 2.1,17.86 6.3,25.07 4.2,7.21 10.06,12.84 17.59,16.88 7.52,4.04 16.12,6.06 25.79,6.06 7.61,0 14.7,-1.34 21.27,-4.04 6.58,-2.69 12.25,-6.81 17,-12.36l9.51 10.94c-5.55,6.65 -12.48,11.72 -20.8,15.21 -8.32,3.49 -17.47,5.23 -27.46,5.23z"/>
  <path id="15" class="fil0" d="M3496.95 995.96l0 -101.98 -60.14 0 -1.42 27.81c-0.32,8.4 -0.83,16.64 -1.55,24.72 -0.71,8.09 -1.9,15.49 -3.56,22.23 -1.67,6.74 -4,12.2 -7.02,16.4 -3.01,4.2 -6.89,6.62 -11.64,7.25l-16.88 -3.09c4.91,0.16 8.95,-1.62 12.12,-5.35 3.17,-3.72 5.63,-8.83 7.37,-15.33 1.74,-6.5 3.01,-13.9 3.8,-22.22 0.8,-8.32 1.43,-16.84 1.91,-25.56l1.66 -41.6 92.23 0 0 116.72 -16.88 0zm-107.44 38.27l0 -44.93 143.81 0 0 44.93 -15.92 0 0 -30.19 -111.96 0 0 30.19 -15.93 0z"/>
  <path id="16" class="fil0" d="M3619.61 1005.23c-12.99,0 -24.4,-2.74 -34.23,-8.2 -9.82,-5.47 -17.51,-13 -23.05,-22.58 -5.55,-9.59 -8.32,-20.57 -8.32,-32.93 0,-12.36 2.65,-23.29 7.96,-32.8 5.31,-9.51 12.6,-17 21.87,-22.47 9.27,-5.46 19.69,-8.2 31.26,-8.2 11.72,0 22.14,2.66 31.26,7.97 9.11,5.31 16.28,12.75 21.51,22.34 5.23,9.59 7.84,20.64 7.84,33.16 0,0.79 -0.04,1.63 -0.12,2.5 -0.08,0.87 -0.11,1.78 -0.11,2.73l-108.64 0 0 -12.6 99.6 0 -6.65 5c0,-9.04 -1.94,-17.08 -5.83,-24.13 -3.88,-7.05 -9.15,-12.56 -15.81,-16.52 -6.65,-3.97 -14.34,-5.95 -23.05,-5.95 -8.56,0 -16.25,1.98 -23.06,5.95 -6.82,3.96 -12.12,9.51 -15.93,16.64 -3.8,7.13 -5.7,15.29 -5.7,24.48l0 2.62c0,9.5 2.1,17.86 6.3,25.07 4.2,7.21 10.06,12.84 17.59,16.88 7.52,4.04 16.12,6.06 25.79,6.06 7.61,0 14.7,-1.34 21.27,-4.04 6.58,-2.69 12.25,-6.81 17,-12.36l9.51 10.94c-5.55,6.65 -12.48,11.72 -20.8,15.21 -8.32,3.49 -17.47,5.23 -27.46,5.23z"/>
  <polygon id="17" class="fil0" points="3713.27,1004.04 3713.03,879.24 3729.91,879.24 3729.91,934.39 3808.59,934.39 3808.59,879.24 3825.23,879.24 3825.47,1004.04 3808.59,1004.04 3808.59,948.89 3729.91,948.89 3729.91,1004.04 "/>
  <path id="18" class="fil0" d="M3926.96 1005.23c-12.99,0 -24.4,-2.74 -34.23,-8.2 -9.82,-5.47 -17.51,-13 -23.05,-22.58 -5.55,-9.59 -8.32,-20.57 -8.32,-32.93 0,-12.36 2.65,-23.29 7.96,-32.8 5.31,-9.51 12.6,-17 21.87,-22.47 9.27,-5.46 19.69,-8.2 31.26,-8.2 11.72,0 22.14,2.66 31.26,7.97 9.11,5.31 16.28,12.75 21.51,22.34 5.23,9.59 7.84,20.64 7.84,33.16 0,0.79 -0.04,1.63 -0.12,2.5 -0.08,0.87 -0.11,1.78 -0.11,2.73l-108.64 0 0 -12.6 99.6 0 -6.65 5c0,-9.04 -1.94,-17.08 -5.83,-24.13 -3.88,-7.05 -9.15,-12.56 -15.81,-16.52 -6.65,-3.97 -14.34,-5.95 -23.05,-5.95 -8.56,0 -16.25,1.98 -23.06,5.95 -6.82,3.96 -12.12,9.51 -15.93,16.64 -3.8,7.13 -5.7,15.29 -5.7,24.48l0 2.62c0,9.5 2.1,17.86 6.3,25.07 4.2,7.21 10.06,12.84 17.59,16.88 7.52,4.04 16.12,6.06 25.79,6.06 7.61,0 14.7,-1.34 21.27,-4.04 6.58,-2.69 12.25,-6.81 17,-12.36l9.51 10.94c-5.55,6.65 -12.48,11.72 -20.8,15.21 -8.32,3.49 -17.47,5.23 -27.46,5.23z"/>
  <polygon id="19" class="fil0" points="4020.38,1004.04 4020.62,879.24 4108.81,879.24 4108.81,893.98 4032.98,893.98 4037.26,889.7 4037.26,1004.04 "/>
 </g>
</svg>
