<?xml version="1.0" encoding="UTF-8"?>
<!DOCTYPE svg PUBLIC "-//W3C//DTD SVG 1.1//EN" "http://www.w3.org/Graphics/SVG/1.1/DTD/svg11.dtd">
<!-- Creator: CorelDRAW 2020 (64-Bit) -->
<svg xmlns="http://www.w3.org/2000/svg" xml:space="preserve" width="25.3998mm" height="16.9332mm" version="1.1" style="shape-rendering:geometricPrecision; text-rendering:geometricPrecision; image-rendering:optimizeQuality; fill-rule:evenodd; clip-rule:evenodd"
viewBox="0 0 2539.98 1693.32"
 xmlns:xlink="http://www.w3.org/1999/xlink"
 xmlns:xodm="http://www.corel.com/coreldraw/odm/2003">
 <defs>
  <style type="text/css">
   <![CDATA[
    .fil0 {fill:#FEFEFE;fill-rule:nonzero}
   ]]>
  </style>
 </defs>
 <g id="Слой_x0020_1">
  <metadata id="CorelCorpID_0Corel-Layer"/>
  <path class="fil0" d="M324.56 1079.26l0 -544.29c0,-30.24 -4.2,-54.6 -12.6,-73.08 -8.39,-18.48 -27.71,-27.72 -57.95,-27.72l-20.16 0 0 -20.16 90.71 0c23.52,0 41.83,3.03 54.94,9.07 13.1,6.05 22.34,17.81 27.72,35.28 5.37,17.47 8.06,43.01 8.06,76.61l0 544.29 -90.72 0z"/>
  <path id="_1" class="fil0" d="M758.99 1089.34c-47.04,0 -87.02,-11.09 -119.95,-33.26 -32.93,-22.18 -58.12,-52.08 -75.6,-89.71 -17.47,-37.63 -26.2,-78.96 -26.2,-123.98 0,-45.69 8.73,-87.19 26.2,-124.48 17.48,-37.29 42.67,-67.03 75.6,-89.2 32.93,-22.18 72.91,-33.27 119.95,-33.27 47.03,0 87.02,11.09 119.94,33.27 32.93,22.17 58.13,51.91 75.6,89.2 17.47,37.29 26.21,78.79 26.21,124.48 0,45.02 -8.74,86.35 -26.21,123.98 -17.47,37.63 -42.67,67.53 -75.6,89.71 -32.92,22.17 -72.91,33.26 -119.94,33.26zm0 -40.32c25.53,0 47.71,-9.24 66.52,-27.72 18.82,-18.48 33.43,-43.34 43.85,-74.59 10.41,-31.24 15.62,-66.02 15.62,-104.32 0,-38.97 -5.21,-73.91 -15.62,-104.83 -10.42,-30.91 -25.03,-55.6 -43.85,-74.08 -18.81,-18.48 -40.99,-27.72 -66.52,-27.72 -24.87,0 -46.87,9.24 -66.02,27.72 -19.16,18.48 -33.94,43.17 -44.35,74.08 -10.42,30.92 -15.63,65.86 -15.63,104.83 0,38.3 5.21,73.08 15.63,104.32 10.41,31.25 25.19,56.11 44.35,74.59 19.15,18.48 41.15,27.72 66.02,27.72z"/>
  <path id="_2" class="fil0" d="M1238.77 1089.34c-35.62,0 -64.68,-10.42 -87.19,-31.25 -22.51,-20.83 -33.77,-54.09 -33.77,-99.78l0 -312.47 -70.55 0 0 -40.32 70.55 0 0 -90.71 50.4 -60.48 40.32 0 0 151.19 120.95 0 0 40.32 -120.95 0 0 312.47c0,30.23 5.88,52.91 17.64,68.03 11.76,15.12 29.4,22.68 52.92,22.68 17.47,0 31.91,-2.01 43.34,-6.05 11.42,-4.03 22.17,-8.73 32.25,-14.11l10.08 20.16c-10.75,8.07 -25.53,16.8 -44.35,26.21 -18.81,9.41 -46.03,14.11 -81.64,14.11z"/>
  <path id="_3" class="fil0" d="M1611.71 1089.34c-28.22,0 -55.44,-5.04 -81.64,-15.12 -26.21,-10.08 -47.71,-28.22 -64.51,-54.43 -16.8,-26.21 -25.2,-63.5 -25.2,-111.88l0 -181.43c0,-30.24 -4.2,-54.6 -12.6,-73.08 -8.4,-18.48 -27.72,-27.72 -57.96,-27.72l-10.08 0 0 -20.16 80.64 0c23.52,0 41.83,3.03 54.93,9.08 13.11,6.04 22.35,17.8 27.72,35.27 5.38,17.47 8.07,43.01 8.07,76.61l0 181.43c0,33.6 5.37,60.31 16.12,80.13 10.75,19.82 24.7,34.1 41.83,42.84 17.14,8.73 34.78,13.1 52.92,13.1 13.44,0 26.21,-2.52 38.3,-7.56 12.1,-5.04 23.52,-11.59 34.27,-19.65 10.75,-8.07 20.16,-16.8 28.23,-26.21l0 -385.04 90.71 0 0 473.74 -50.4 0 -35.27 -40.32 -5.04 0c-12.77,12.77 -30.24,24.36 -52.42,34.78 -22.17,10.41 -48.38,15.62 -78.62,15.62z"/>
  <path id="_4" class="fil0" d="M2136.85 1089.34c-40.32,0 -73.24,-3.53 -98.78,-10.58 -25.53,-7.06 -44.68,-16.97 -57.45,-29.74 -12.77,-12.77 -20.16,-27.21 -22.18,-43.34 -2.01,-16.13 -3.02,-36.96 -3.02,-62.49l20.16 0c5.37,32.92 19.49,58.79 42.33,77.61 22.85,18.81 55.78,28.22 98.78,28.22 38.3,0 66.36,-6.72 84.17,-20.16 17.8,-13.44 26.71,-30.24 26.71,-50.39 0,-20.16 -7.56,-37.13 -22.68,-50.91 -15.12,-13.77 -37.8,-27.04 -68.04,-39.81l-60.48 -25.2c-38.3,-15.45 -68.03,-33.77 -89.2,-54.93 -21.17,-21.17 -31.75,-48.22 -31.75,-81.14 0,-42.34 15.79,-74.76 47.37,-97.27 31.59,-22.51 71.23,-33.77 118.94,-33.77 38.3,0 69.89,3.53 94.75,10.59 24.86,7.05 43.68,16.96 56.44,29.73 12.77,12.77 20.16,27.22 22.18,43.34 2.01,16.13 3.02,36.96 3.02,62.5l-20.16 0c-5.37,-32.93 -19.32,-58.8 -41.83,-77.62 -22.51,-18.81 -53.92,-28.22 -94.24,-28.22 -32.93,0 -57.96,6.72 -75.09,20.16 -17.14,13.44 -25.7,30.24 -25.7,50.4 0,17.47 7.05,33.43 21.16,47.88 14.11,14.44 33.94,27.04 59.47,37.79l60.48 25.2c43,17.47 75.59,36.63 97.77,57.46 22.17,20.83 33.26,48.71 33.26,83.66 0,42.33 -16.8,74.75 -50.4,97.26 -33.59,22.51 -75.59,33.77 -125.99,33.77z"/>
 </g>
</svg>
