<?xml version="1.0" encoding="UTF-8"?>
<svg xmlns="http://www.w3.org/2000/svg" xmlns:xlink="http://www.w3.org/1999/xlink" viewBox="0 0 20 20" width="20px" height="20px">
<g id="surface89412831">
<path style=" stroke:none;fill-rule:nonzero;fill:rgb(43.921569%,43.921569%,43.921569%);fill-opacity:1;" d="M 8.59375 -0.0273438 C 7.15625 -0.0273438 5.96875 1.097656 5.832031 2.5 L 1.667969 2.5 L 1.667969 4.167969 L 5.808594 4.167969 L 5.808594 4.191406 L 14.191406 4.191406 L 14.191406 4.167969 L 18.332031 4.167969 L 18.332031 2.5 L 14.167969 2.5 C 14.035156 1.097656 12.902344 -0.0273438 11.511719 -0.0273438 Z M 8.59375 1.691406 L 11.511719 1.691406 C 11.933594 1.691406 12.246094 2.023438 12.371094 2.472656 L 7.628906 2.472656 C 7.746094 2.023438 8.074219 1.691406 8.59375 1.691406 Z M 3.332031 5 L 3.332031 18.75 C 3.332031 19.417969 3.917969 20 4.582031 20 L 15.496094 20 C 16.164062 20 16.746094 19.417969 16.746094 18.75 L 16.746094 5 Z M 5.832031 7.5 L 6.667969 7.5 L 6.667969 18.332031 L 5.832031 18.332031 Z M 8.332031 7.5 L 9.167969 7.5 L 9.167969 18.332031 L 8.332031 18.332031 Z M 10.832031 7.5 L 11.667969 7.5 L 11.667969 18.332031 L 10.832031 18.332031 Z M 13.332031 7.5 L 14.167969 7.5 L 14.167969 18.332031 L 13.332031 18.332031 Z M 13.332031 7.5 "/>
</g>
</svg>
