<?xml version="1.0" encoding="UTF-8"?>
<svg xmlns="http://www.w3.org/2000/svg" xmlns:xlink="http://www.w3.org/1999/xlink" viewBox="0 0 20 20" width="20px" height="20px">
<g id="surface89789928">
<path style=" stroke:none;fill-rule:nonzero;fill:rgb(43.921569%,43.921569%,43.921569%);fill-opacity:1;" d="M 15.21875 2 C 14.878906 2 14.535156 2.128906 14.277344 2.390625 L 12.667969 4 L 16 7.332031 L 17.609375 5.722656 C 18.128906 5.203125 18.128906 4.359375 17.609375 3.839844 L 16.160156 2.390625 C 15.902344 2.128906 15.558594 2 15.21875 2 Z M 11.332031 5.332031 L 3.507812 13.160156 C 3.507812 13.160156 4.117188 13.105469 4.347656 13.332031 C 4.574219 13.5625 4.386719 15.054688 4.667969 15.332031 C 4.945312 15.613281 6.429688 15.417969 6.640625 15.628906 C 6.855469 15.839844 6.839844 16.492188 6.839844 16.492188 L 14.667969 8.667969 Z M 2.667969 15.332031 L 2.039062 17.113281 C 2.011719 17.183594 2 17.257812 2 17.332031 C 2 17.703125 2.296875 18 2.667969 18 C 2.742188 18 2.816406 17.988281 2.886719 17.960938 C 2.886719 17.960938 2.890625 17.960938 2.890625 17.960938 L 2.910156 17.953125 C 2.910156 17.953125 2.910156 17.953125 2.914062 17.953125 L 4.667969 17.332031 Z M 2.667969 15.332031 "/>
</g>
</svg>
